<?xml version="1.0" encoding="UTF-8" standalone="no"?>
<!-- Created with Inkscape (http://www.inkscape.org/) -->

<svg
   width="512"
   height="512"
   viewBox="0 0 512 512"
   version="1.1"
   id="svg1"
   inkscape:version="1.3.2 (091e20e, 2023-11-25, custom)"
   sodipodi:docname="neostarfall_logo.svg"
   inkscape:export-filename="neostarfall_logo_16x16.png"
   inkscape:export-xdpi="3"
   inkscape:export-ydpi="3"
   xmlns:inkscape="http://www.inkscape.org/namespaces/inkscape"
   xmlns:sodipodi="http://sodipodi.sourceforge.net/DTD/sodipodi-0.dtd"
   xmlns:xlink="http://www.w3.org/1999/xlink"
   xmlns="http://www.w3.org/2000/svg"
   xmlns:svg="http://www.w3.org/2000/svg">
  <sodipodi:namedview
     id="namedview1"
     pagecolor="#505050"
     bordercolor="#ffffff"
     borderopacity="1"
     inkscape:showpageshadow="0"
     inkscape:pageopacity="0"
     inkscape:pagecheckerboard="1"
     inkscape:deskcolor="#505050"
     inkscape:document-units="px"
     inkscape:zoom="0.57452426"
     inkscape:cx="402.94208"
     inkscape:cy="474.30547"
     inkscape:window-width="1920"
     inkscape:window-height="1057"
     inkscape:window-x="-8"
     inkscape:window-y="-8"
     inkscape:window-maximized="1"
     inkscape:current-layer="layer1"
     showguides="true"
     inkscape:export-bgcolor="#ffffff00" />
  <defs
     id="defs1">
    <linearGradient
       id="linearGradient61"
       inkscape:collect="always">
      <stop
         style="stop-color:#593902;stop-opacity:1;"
         offset="0"
         id="stop61" />
      <stop
         style="stop-color:#382305;stop-opacity:1;"
         offset="1"
         id="stop62" />
    </linearGradient>
    <inkscape:path-effect
       effect="fillet_chamfer"
       id="path-effect60"
       is_visible="true"
       lpeversion="1"
       nodesatellites_param="F,1,0,1,0,0.1,0,1 @ F,1,0,1,0,0.1,0,1 @ F,1,0,1,0,0.1,0,1 @ F,1,0,1,0,0.1,0,1"
       radius="10"
       unit="px"
       method="auto"
       mode="F"
       chamfer_steps="1"
       flexible="true"
       use_knot_distance="true"
       apply_no_radius="true"
       apply_with_radius="true"
       only_selected="false"
       hide_knots="false" />
    <inkscape:path-effect
       effect="lattice2"
       gridpoint0="71.673621,-4.4648648"
       gridpoint1="355.24111,-4.4648648"
       gridpoint2="71.673621,274.43384"
       gridpoint3="355.24111,274.43384"
       gridpoint4="142.56549,-4.4648648"
       gridpoint5="284.34924,-4.4648648"
       gridpoint6="142.56549,274.43384"
       gridpoint7="284.34924,274.43384"
       gridpoint8x9="213.45737,-4.4648648"
       gridpoint10x11="213.45737,274.43384"
       gridpoint12="71.673621,65.259813"
       gridpoint13="355.24111,65.259813"
       gridpoint14="71.673621,204.70916"
       gridpoint15="355.24111,204.70916"
       gridpoint16="121.67544,37.101497"
       gridpoint17="305.2393,37.101497"
       gridpoint18="121.67544,232.86748"
       gridpoint19="305.2393,232.86748"
       gridpoint20x21="213.45737,65.259812"
       gridpoint22x23="213.45737,204.70916"
       gridpoint24x26="71.673621,134.98449"
       gridpoint25x27="355.24111,134.98449"
       gridpoint28x30="142.56549,134.98449"
       gridpoint29x31="284.34924,134.98449"
       gridpoint32x33x34x35="213.45737,134.98449"
       id="path-effect1"
       is_visible="true"
       lpeversion="1"
       horizontal_mirror="true"
       vertical_mirror="true"
       perimetral="false"
       live_update="true" />
    <filter
       style="color-interpolation-filters:sRGB;"
       inkscape:label="Drop Shadow"
       id="filter39"
       x="-0.16464134"
       y="-0.16739745"
       width="1.3292827"
       height="1.3636753">
      <feFlood
         result="flood"
         in="SourceGraphic"
         flood-opacity="1.000000"
         flood-color="rgb(242,147,23)"
         id="feFlood38" />
      <feGaussianBlur
         result="blur"
         in="SourceGraphic"
         stdDeviation="12.765958"
         id="feGaussianBlur38" />
      <feOffset
         result="offset"
         in="blur"
         dx="0.000000"
         dy="0.000000"
         id="feOffset38" />
      <feComposite
         result="comp1"
         operator="out"
         in="flood"
         in2="offset"
         id="feComposite38" />
      <feComposite
         result="fbSourceGraphic"
         operator="atop"
         in="comp1"
         in2="SourceGraphic"
         id="feComposite39" />
      <feColorMatrix
         result="fbSourceGraphicAlpha"
         in="fbSourceGraphic"
         values="0 0 0 -1 0 0 0 0 -1 0 0 0 0 -1 0 0 0 0 1 0"
         id="feColorMatrix59" />
      <feFlood
         id="feFlood59"
         result="flood"
         in="fbSourceGraphic"
         flood-opacity="1.000000"
         flood-color="rgb(65,42,12)" />
      <feGaussianBlur
         id="feGaussianBlur59"
         result="blur"
         in="fbSourceGraphic"
         stdDeviation="6.686930" />
      <feOffset
         id="feOffset59"
         result="offset"
         in="blur"
         dx="0.000000"
         dy="8.054711" />
      <feComposite
         id="feComposite59"
         result="comp1"
         operator="in"
         in="flood"
         in2="offset" />
      <feComposite
         id="feComposite60"
         result="comp2"
         operator="over"
         in="fbSourceGraphic"
         in2="comp1" />
    </filter>
    <radialGradient
       inkscape:collect="always"
       xlink:href="#linearGradient61"
       id="radialGradient62"
       cx="319.37129"
       cy="168.45779"
       fx="319.37129"
       fy="168.45779"
       r="254.06889"
       gradientTransform="matrix(1,0,0,1.0036394,0,-0.61309128)"
       gradientUnits="userSpaceOnUse" />
  </defs>
  <g
     inkscape:label="Layer 1"
     inkscape:groupmode="layer"
     id="layer1"
     transform="rotate(-16.631897,263.41691,266.27628)">
    <path
       style="fill:url(#radialGradient62);fill-opacity:1;stroke:none;stroke-width:6.854"
       id="rect60"
       width="508.13779"
       height="509.98712"
       x="65.302399"
       y="-86.535767"
       transform="rotate(16.631897)"
       inkscape:label="Background"
       inkscape:path-effect="#path-effect60"
       sodipodi:type="rect"
       d="m 116.11618,-86.535767 h 406.32529 a 50.998712,50.998712 45 0 1 50.99872,50.998713 V 372.63758 a 50.813779,50.813779 135 0 1 -50.81378,50.81377 H 116.30111 A 50.998712,50.998712 45 0 1 65.302399,372.45264 V -35.721988 a 50.813779,50.813779 135 0 1 50.813781,-50.813779 z" />
    <path
       id="path1"
       style="fill:#ee7f18;stroke-width:6.854;filter:url(#filter39)"
       inkscape:transform-center-x="-0.26644649"
       inkscape:transform-center-y="-17.695376"
       transform="matrix(1.5917042,0.28056889,-0.28056889,1.5917042,-25.184435,-26.087169)"
       d="m 283.56609,274.43384 c -5.72304,-4.50457 -13.86899,-10.86252 -22.10985,-17.56815 -8.81758,-7.17491 -17.53265,-14.55908 -26.79711,-22.81998 -17.9572,-16.01201 -33.34438,-31.33881 -33.34438,-31.33881 -9.07948,5.88151 -19.21111,12.28024 -30.37919,19.04422 -11.20991,6.7893 -21.40168,12.70005 -31.24634,18.29122 -9.5147,5.40377 -17.71791,9.96793 -23.61079,13.29091 -5.88224,3.31699 -9.48691,5.39431 -9.48691,5.39431 3.73592,-8.45436 7.68603,-17.58774 12.74192,-29.47324 3.48599,-8.19494 11.96588,-28.32189 15.45188,-36.51683 5.57014,-13.15049 9.92832,-23.34483 14.02791,-32.83 3.75751,-8.69373 6.15867,-14.15787 6.15867,-14.15787 C 135.13147,131.23508 118.57758,118.74389 98.990884,104.01261 82.536959,91.6375 71.673621,83.644977 71.673621,83.644977 c 6.860872,0.08283 15.450734,0.350418 26.149805,0.957837 10.713924,0.608262 22.069984,1.473677 33.737454,2.530159 22.93089,2.076378 43.04132,4.544627 43.04132,4.544627 9.69338,-22.124995 21.01663,-46.537536 32.28781,-67.334374 5.25221,-9.691021 9.43105,-16.6355889 12.57999,-21.5759148 3.02971,-4.7532616 4.81436,-7.232176 4.81436,-7.232176 2.12264,5.6094205 4.64824,13.2076777 7.62087,23.5910478 2.96377,10.352376 5.94508,21.982531 8.84465,34.138458 5.73671,24.050078 10.09267,45.578309 10.09267,45.578309 22.64961,2.3499 47.6351,5.33957 70.70582,8.81368 10.71587,1.61366 18.8609,3.00816 24.79273,4.09097 5.73156,1.04624 8.90001,1.70153 8.90001,1.70153 -5.86668,3.03943 -14.05953,7.26736 -23.54399,12.0826 -9.79731,4.97407 -20.13377,10.14954 -30.99437,15.48397 -21.2772,10.45078 -40.06534,19.21648 -40.06534,19.21648 10.12204,46.52733 17.87983,86.9448 22.92868,114.20166 z"
       inkscape:path-effect="#path-effect1"
       inkscape:original-d="M 283.56609,274.43384 202.62603,193.06958 108.31175,256.01385 161.56481,144.15317 71.673621,83.644977 179.0418,98.183736 224.28436,-4.4648648 246.46418,104.40263 l 108.77693,9.0465 -100.08408,42.92959 z"
       sodipodi:nodetypes="ccccccccccc"
       inkscape:label="Star" />
  </g>
</svg>
